<?xml version="1.0" encoding="utf-8"?>
<!-- Generator: Adobe Illustrator 17.0.0, SVG Export Plug-In . SVG Version: 6.00 Build 0)  -->
<!DOCTYPE svg PUBLIC "-//W3C//DTD SVG 1.1//EN" "http://www.w3.org/Graphics/SVG/1.1/DTD/svg11.dtd">
<svg version="1.1" id="Layer_1" xmlns="http://www.w3.org/2000/svg" xmlns:xlink="http://www.w3.org/1999/xlink" x="0px" y="0px"
	 width="108px" height="39px" viewBox="0 0 108 39" enable-background="new 0 0 108 39" xml:space="preserve">
<g>
	<g>
		<g>
			<path fill="#FFFFFF" d="M25.607,17.436c0,0,0-5.753,0-5.753s0.128-1.41-1.263-1.403h-9.696v1.061V38.73h9.513
				c1.574,0,1.446-1.315,1.446-1.315V24.436v-2.634V17.436z"/>
			<path fill="#FFFFFF" d="M24.161,38.842h-9.63V10.169h9.813c0.436,0,0.772,0.125,1.009,0.372c0.429,0.446,0.373,1.123,0.37,1.152
				l0,25.722c0.002,0.014,0.052,0.578-0.349,0.997C25.103,38.697,24.694,38.842,24.161,38.842L24.161,38.842z M14.766,38.618h9.396
				c0.464,0,0.813-0.119,1.039-0.355c0.331-0.345,0.29-0.834,0.29-0.839l0-25.742c0.001-0.015,0.049-0.62-0.31-0.992
				c-0.191-0.198-0.469-0.299-0.825-0.299h-9.59V38.618L14.766,38.618z"/>
		</g>
		<g>
			<path fill="#FFFFFF" d="M25.607,7.358c0,0,0-5.753,0-5.753s0.128-1.41-1.263-1.403h-9.696v1.061v27.388h9.513
				c1.574,0,1.446-1.315,1.446-1.315V14.358v-2.634V7.358z"/>
			<path fill="#FFFFFF" d="M24.161,28.764h-9.63V0.091h9.813c0.436,0,0.772,0.125,1.009,0.372c0.429,0.446,0.373,1.123,0.37,1.152
				l0,25.722c0.002,0.014,0.052,0.578-0.349,0.997C25.103,28.619,24.694,28.764,24.161,28.764L24.161,28.764z M14.766,28.54h9.396
				c0.464,0,0.813-0.119,1.039-0.355c0.331-0.345,0.29-0.834,0.29-0.838l0-25.742c0.001-0.015,0.049-0.62-0.31-0.992
				c-0.191-0.198-0.469-0.299-0.825-0.299h-9.59V28.54L14.766,28.54z"/>
		</g>
	</g>
	<g>
		<path fill="#FFFFFF" d="M23.041,20.966l2.327,2.673l12.335,14.067c0,0,0.857,0.935,2.394,1.019h11.038L34.314,18.678L49.467,0.117
			H38.816c-1.537,0-2.717,1.232-2.717,1.232L23.041,16.386C23.041,16.386,21.138,18.502,23.041,20.966z"/>
		<path fill="#FFFFFF" d="M51.386,38.842H40.097c-1.573-0.086-2.444-1.017-2.481-1.057L25.28,23.716l-2.327-2.673
			c-1.945-2.517-0.018-4.713,0.001-4.735L36.011,1.272C36.064,1.216,37.247,0,38.816,0h10.898L34.466,18.677L51.386,38.842
			L51.386,38.842z M38.816,0.234c-1.47,0-2.621,1.184-2.632,1.196L23.129,16.463c-0.076,0.085-1.815,2.076,0.004,4.431l2.323,2.667
			l12.335,14.066c0.006,0.007,0.845,0.899,2.313,0.979l10.78,0L34.162,18.679L49.22,0.234H38.816L38.816,0.234z"/>
	</g>
	<g>
		<path fill="#FFFFFF" d="M11.076,17.768v-5.664c0,0,0.128-1.388-1.263-1.381H0.117v1.045v26.964H9.63
			c1.574,0,1.446-1.295,1.446-1.295V24.659v-2.593V17.768z"/>
		<path fill="#FFFFFF" d="M9.63,38.842H0V10.613h9.813c0.436,0,0.772,0.123,1.009,0.366c0.429,0.439,0.373,1.106,0.37,1.134
			l0,25.324c0.002,0.013,0.052,0.569-0.349,0.982C10.572,38.7,10.163,38.842,9.63,38.842L9.63,38.842z M0.234,38.622H9.63
			c0.464,0,0.813-0.117,1.039-0.349c0.331-0.339,0.29-0.821,0.29-0.825l0-25.343c0.001-0.015,0.049-0.61-0.31-0.977
			c-0.191-0.195-0.469-0.294-0.825-0.294h-9.59V38.622L0.234,38.622z"/>
	</g>
	<g opacity="0.7">
		<path fill="#FFFFFF" d="M9.538,0.117H0.117v7.251h9.238c0,0,1.63-0.037,1.721-1.41v-4.3C11.076,1.658,11.076,0.117,9.538,0.117z"
			/>
		<path fill="#FFFFFF" d="M9.357,7.485H0V0h9.538c1.636,0,1.655,1.641,1.655,1.658v4.3c-0.097,1.47-1.818,1.527-1.835,1.527H9.357
			L9.357,7.485z M0.234,7.251h9.119c0.078-0.002,1.523-0.06,1.605-1.3l0-4.293c0-0.058-0.021-1.424-1.42-1.424H0.234V7.251
			L0.234,7.251z"/>
	</g>
	<g>
		<path fill="#FFFFFF" d="M77.767,19.464c0,1.609-0.019,3.121-0.055,4.534c-0.036,1.413-0.179,2.755-0.429,4.025
			c-0.251,1.27-0.644,2.46-1.18,3.568c-0.537,1.111-1.289,2.148-2.255,3.114c-1.36,1.36-2.881,2.397-4.562,3.112
			c-1.682,0.716-3.702,1.073-6.064,1.073c-2.362,0-4.384-0.357-6.064-1.073c-1.683-0.714-3.202-1.752-4.562-3.112
			c-0.966-0.966-1.718-2.003-2.253-3.114c-0.537-1.108-0.93-2.298-1.182-3.568c-0.25-1.27-0.394-2.612-0.429-4.025
			c-0.036-1.413-0.053-2.926-0.053-4.534c0-1.61,0.017-3.121,0.053-4.536c0.034-1.413,0.179-2.755,0.429-4.025
			c0.252-1.268,0.644-2.46,1.182-3.568c0.536-1.109,1.287-2.146,2.253-3.112c1.36-1.36,2.879-2.398,4.562-3.113
			c1.68-0.716,3.702-1.073,6.064-1.073c2.362,0,4.382,0.357,6.064,1.073c1.682,0.716,3.202,1.753,4.562,3.113
			c0.966,0.966,1.718,2.003,2.255,3.112c0.536,1.109,0.929,2.3,1.18,3.568c0.25,1.27,0.393,2.612,0.429,4.025
			C77.748,16.342,77.767,17.853,77.767,19.464z M68.375,19.464c0-1.753-0.036-3.176-0.107-4.267
			c-0.072-1.09-0.162-1.967-0.269-2.629c-0.107-0.661-0.25-1.172-0.43-1.529c-0.179-0.357-0.376-0.68-0.59-0.966
			c-0.357-0.466-0.857-0.859-1.503-1.182c-0.643-0.321-1.394-0.483-2.253-0.483c-0.859,0-1.61,0.161-2.253,0.483
			c-0.644,0.323-1.146,0.716-1.503,1.182c-0.214,0.285-0.412,0.609-0.59,0.966c-0.18,0.357-0.323,0.868-0.429,1.529
			c-0.109,0.661-0.199,1.539-0.27,2.629c-0.071,1.092-0.106,2.514-0.106,4.267c0,1.753,0.034,3.166,0.106,4.239
			c0.072,1.073,0.161,1.941,0.27,2.603c0.106,0.663,0.248,1.172,0.429,1.529c0.178,0.359,0.376,0.68,0.59,0.966
			c0.357,0.466,0.859,0.868,1.503,1.208c0.643,0.34,1.394,0.509,2.253,0.509c0.859,0,1.61-0.169,2.253-0.509
			c0.646-0.34,1.146-0.742,1.503-1.208c0.214-0.286,0.411-0.607,0.59-0.966c0.18-0.357,0.323-0.866,0.43-1.529
			c0.107-0.662,0.197-1.529,0.269-2.603C68.339,22.63,68.375,21.217,68.375,19.464z"/>
		<path fill="#FFFFFF" d="M105.735,6.218l-4.284,4.282c-1-1.002-2.075-1.627-3.219-1.877c-1.144-0.25-2.486-0.376-4.025-0.376
			c-0.823,0-1.52,0.107-2.092,0.321c-0.574,0.214-1.046,0.492-1.422,0.832c-0.376,0.34-0.654,0.716-0.832,1.126
			c-0.18,0.413-0.269,0.832-0.269,1.262c0,0.25,0.054,0.536,0.16,0.859c0.109,0.321,0.305,0.626,0.592,0.911
			c0.25,0.25,0.581,0.483,0.992,0.697c0.411,0.216,0.956,0.359,1.637,0.43l4.615,0.645c3.364,0.464,5.868,1.52,7.514,3.166
			c1.037,1.001,1.772,2.2,2.2,3.595c0.429,1.396,0.643,2.988,0.643,4.777c0,1.932-0.395,3.649-1.18,5.152
			c-0.787,1.502-1.851,2.764-3.193,3.783c-1.341,1.02-2.907,1.791-4.696,2.308c-1.789,0.519-3.686,0.778-5.69,0.778
			c-1.466,0-2.862-0.079-4.185-0.241c-1.324-0.161-2.595-0.43-3.811-0.806c-1.216-0.374-2.362-0.885-3.435-1.53
			c-1.073-0.643-2.092-1.466-3.058-2.467l4.318-4.32c0,0,1.383-1.534,3.309-0.471c0.669,0.375,1.418,0.666,2.246,0.873
			c1.575,0.394,3.131,0.59,4.669,0.59c3.65,0,5.474-1.145,5.474-3.435c0-0.966-0.251-1.717-0.751-2.253
			c-0.538-0.537-1.378-0.877-2.522-1.02l-4.615-0.644c-3.401-0.5-5.957-1.627-7.674-3.381c-1.755-1.789-2.63-4.346-2.63-7.674
			c0-1.754,0.323-3.362,0.966-4.83c0.645-1.467,1.565-2.738,2.764-3.811c1.199-1.073,2.657-1.915,4.374-2.523
			c1.717-0.607,3.666-0.912,5.85-0.912c2.755,0,5.179,0.349,7.272,1.047c1.334,0.445,2.659,0.98,3.731,1.914
			C107.335,4.613,105.735,6.218,105.735,6.218z"/>
	</g>
</g>
</svg>
