<?xml version="1.0" encoding="utf-8"?>
<!-- Generator: Adobe Illustrator 19.1.0, SVG Export Plug-In . SVG Version: 6.00 Build 0)  -->
<!DOCTYPE svg PUBLIC "-//W3C//DTD SVG 1.1//EN" "http://www.w3.org/Graphics/SVG/1.1/DTD/svg11.dtd">
<svg version="1.1" id="Layer_1" xmlns="http://www.w3.org/2000/svg" xmlns:xlink="http://www.w3.org/1999/xlink" x="0px" y="0px"
	 viewBox="0 0 65.9 64.8" style="enable-background:new 0 0 65.9 64.8;" xml:space="preserve">
<style type="text/css">
	.st0{fill:#333333;}
	.st1{font-family:'Karla-Regular';}
	.st2{font-size:6.9533px;}
</style>
<text transform="matrix(1 0 0 1 22 60.549)" class="st0 st1 st2">Data</text>
<text transform="matrix(1 0 0 1 22 7.7228)" class="st0 st1 st2">Presentation</text>
<text transform="matrix(1 0 0 1 22.083 35.1519)" class="st0 st1 st2">Logic</text>
<g>
	<path class="st0" d="M7,52.8c-2.5,0-5.2,0.8-5.2,2.4v7.1c0,1.7,2.7,2.4,5.2,2.4s5.2-0.8,5.2-2.4v-7.1C12.3,53.6,9.5,52.8,7,52.8z
		 M11.5,62.4c0,0.9-2,1.7-4.5,1.7c-2.5,0-4.5-0.8-4.5-1.7V61c0.8,0.8,2.6,1.2,4.5,1.2s3.7-0.4,4.5-1.2V62.4z M11.5,60.1L11.5,60.1
		C11.5,60.1,11.5,60.2,11.5,60.1c0,0.9-2,1.7-4.5,1.7s-4.5-0.8-4.5-1.7c0,0,0,0,0,0h0v-1.4C3.3,59.5,5.1,60,7,60s3.7-0.4,4.5-1.2
		V60.1z M11.5,57.9L11.5,57.9C11.5,57.9,11.5,57.9,11.5,57.9c0,0.9-2,1.7-4.5,1.7s-4.5-0.8-4.5-1.7c0,0,0,0,0,0h0v-1.3
		c1,0.7,2.8,1.1,4.5,1.1s3.5-0.4,4.5-1.1V57.9z M7,57c-2.5,0-4.5-0.8-4.5-1.7c0-0.9,2-1.7,4.5-1.7c2.5,0,4.5,0.8,4.5,1.7
		C11.5,56.2,9.5,57,7,57z M10,62.6c0-0.2,0.2-0.4,0.4-0.4s0.4,0.2,0.4,0.4c0,0.2-0.2,0.4-0.4,0.4S10,62.8,10,62.6z M10,60.3
		c0-0.2,0.2-0.4,0.4-0.4s0.4,0.2,0.4,0.4c0,0.2-0.2,0.4-0.4,0.4S10,60.5,10,60.3z M10,58.1c0-0.2,0.2-0.4,0.4-0.4s0.4,0.2,0.4,0.4
		c0,0.2-0.2,0.4-0.4,0.4S10,58.3,10,58.1z"/>
</g>
<g>
	<path class="st0" d="M11.4,1.6l-8.8,0C2.4,1.6,2.2,1.8,2.2,2v5.6C2.2,7.8,2.4,8,2.6,8h8.8c0.2,0,0.4-0.2,0.4-0.4V2
		C11.8,1.8,11.6,1.6,11.4,1.6z M11.4,7.6H2.6V2h8.8V7.6z M12.2,0H1.8C1.1,0,0.6,0.5,0.6,1.2v8c0,0.7,0.5,1.2,1.2,1.2h4v0.5l-2.5,0.3
		c-0.2,0-0.3,0.2-0.3,0.4C3,11.8,3.2,12,3.4,12h7.2c0.2,0,0.4-0.2,0.4-0.4c0-0.2-0.1-0.3-0.3-0.4l-2.5-0.3v-0.5h4
		c0.7,0,1.2-0.5,1.2-1.2v-8C13.4,0.5,12.9,0,12.2,0z M12.6,9.2c0,0.2-0.2,0.4-0.4,0.4H1.8c-0.2,0-0.4-0.2-0.4-0.4v-8
		c0-0.2,0.2-0.4,0.4-0.4h10.4c0.2,0,0.4,0.2,0.4,0.4V9.2z"/>
</g>
<g>
	<path class="st0" d="M12.4,31.8l-1.1-0.2c-0.1-0.2-0.1-0.3-0.2-0.5l0.7-1c0.2-0.3,0.2-0.7-0.1-0.9l-0.7-0.7
		c-0.1-0.1-0.3-0.2-0.5-0.2c-0.1,0-0.3,0-0.4,0.1L9,29c-0.2-0.1-0.3-0.1-0.5-0.2l-0.2-1.1C8.2,27.3,7.9,27,7.5,27h-1
		c-0.4,0-0.7,0.3-0.7,0.6l-0.2,1.1C5.4,28.8,5.2,28.9,5,29l-1-0.7c-0.1-0.1-0.3-0.1-0.4-0.1c-0.2,0-0.4,0.1-0.5,0.2l-0.7,0.7
		c-0.3,0.3-0.3,0.6-0.1,0.9L3,31c-0.1,0.2-0.1,0.3-0.2,0.5l-1.1,0.2C1.3,31.8,1,32.1,1,32.5v1c0,0.4,0.3,0.7,0.6,0.7l1.1,0.2
		C2.8,34.6,2.9,34.8,3,35l-0.7,1c-0.2,0.3-0.2,0.7,0.1,0.9l0.7,0.7c0.1,0.1,0.3,0.2,0.5,0.2c0.1,0,0.3,0,0.4-0.1L5,37
		c0.2,0.1,0.3,0.1,0.5,0.2l0.2,1.1C5.8,38.7,6.1,39,6.5,39h1c0.4,0,0.7-0.3,0.7-0.6l0.2-1.1C8.6,37.2,8.8,37.1,9,37l1,0.7
		c0.1,0.1,0.3,0.1,0.4,0.1c0.2,0,0.4-0.1,0.5-0.2l0.7-0.7c0.3-0.3,0.3-0.6,0.1-0.9L11,35c0.1-0.2,0.1-0.3,0.2-0.5l1.1-0.2
		c0.4-0.1,0.6-0.4,0.6-0.7v-1C13,32.1,12.7,31.8,12.4,31.8z M11.1,33.7c-0.3,0.1-0.5,0.2-0.6,0.5c0,0.1-0.1,0.3-0.2,0.4
		c-0.1,0.2-0.1,0.5,0.1,0.7l0.7,1l-0.7,0.7l-1-0.7c-0.1-0.1-0.3-0.1-0.4-0.1c-0.1,0-0.2,0-0.3,0.1c-0.1,0.1-0.3,0.1-0.4,0.2
		c-0.3,0.1-0.4,0.3-0.5,0.6l-0.2,1.1h-1l-0.2-1.1c-0.1-0.3-0.2-0.5-0.5-0.6c-0.1,0-0.3-0.1-0.4-0.2c-0.1-0.1-0.2-0.1-0.3-0.1
		c-0.1,0-0.3,0-0.4,0.1l-1,0.7l-0.7-0.7l0.7-1c0.1-0.2,0.2-0.5,0.1-0.7c-0.1-0.1-0.1-0.3-0.2-0.4c-0.1-0.3-0.3-0.4-0.6-0.5l-1.1-0.2
		l0-1l1.1-0.2c0.3-0.1,0.5-0.2,0.6-0.5c0-0.1,0.1-0.3,0.2-0.4c0.1-0.2,0.1-0.5-0.1-0.7l-0.7-1l0.7-0.7l1,0.7
		c0.1,0.1,0.3,0.1,0.4,0.1c0.1,0,0.2,0,0.3-0.1c0.1-0.1,0.3-0.1,0.4-0.2c0.3-0.1,0.4-0.3,0.5-0.6l0.2-1.1l1,0l0.2,1.1
		c0.1,0.3,0.2,0.5,0.5,0.6c0.1,0,0.3,0.1,0.4,0.2c0.1,0.1,0.2,0.1,0.3,0.1c0.1,0,0.3,0,0.4-0.1l1-0.7l0.7,0.7l-0.7,1
		c-0.1,0.2-0.2,0.5-0.1,0.7c0.1,0.1,0.1,0.3,0.2,0.4c0.1,0.3,0.3,0.4,0.6,0.5l1.1,0.2l0,1L11.1,33.7z M7,30.4
		c-1.4,0-2.6,1.2-2.6,2.6c0,1.4,1.2,2.6,2.6,2.6s2.6-1.2,2.6-2.6S8.4,30.4,7,30.4z M7,35.3c-1.3,0-2.3-1-2.3-2.3
		c0-1.3,1-2.3,2.3-2.3c1.3,0,2.3,1,2.3,2.3C9.3,34.3,8.3,35.3,7,35.3z M7,31.5c-0.8,0-1.5,0.7-1.5,1.5c0,0.8,0.7,1.5,1.5,1.5
		c0.8,0,1.5-0.7,1.5-1.5S7.8,31.5,7,31.5z M7,34.1c-0.6,0-1.1-0.5-1.1-1.1c0-0.6,0.5-1.1,1.1-1.1s1.1,0.5,1.1,1.1
		C8.1,33.6,7.6,34.1,7,34.1z"/>
</g>
</svg>
